<svg width="20" height="20" viewBox="0 0 20 20" fill="none" xmlns="http://www.w3.org/2000/svg">
<path d="M9.16732 17.4792L7.10482 15.5833C5.89648 14.4722 4.89301 13.5208 4.0944 12.7292C3.29579 11.9375 2.65343 11.2222 2.16732 10.5833C1.68121 9.94444 1.33746 9.34375 1.13607 8.78125C0.934679 8.21875 0.833984 7.61806 0.833984 6.97917C0.833984 5.72917 1.25412 4.67014 2.0944 3.80208C2.93468 2.93403 3.97287 2.5 5.20898 2.5C6.00065 2.5 6.73329 2.68403 7.4069 3.05208C8.08051 3.42014 8.66732 3.95833 9.16732 4.66667C9.75065 3.91667 10.3687 3.36806 11.0215 3.02083C11.6743 2.67361 12.3757 2.5 13.1257 2.5C14.2448 2.5 15.1843 2.88194 15.9442 3.64583C16.704 4.40972 17.1673 5.33333 17.334 6.41667H16.1048C15.9798 5.65278 15.6569 5.01736 15.1361 4.51042C14.6152 4.00347 13.9451 3.75 13.1257 3.75C12.4173 3.75 11.7576 3.96528 11.1465 4.39583C10.5354 4.82639 10.0423 5.4375 9.66732 6.22917H8.64648C8.28537 5.45139 7.79926 4.84375 7.18815 4.40625C6.57704 3.96875 5.91732 3.75 5.20898 3.75C4.29232 3.75 3.54232 4.05903 2.95898 4.67708C2.37565 5.29514 2.08398 6.0625 2.08398 6.97917C2.08398 7.52083 2.19162 8.04861 2.4069 8.5625C2.62218 9.07639 2.9964 9.66019 3.52957 10.3139C4.06273 10.9676 4.78843 11.7315 5.70665 12.6056C6.62487 13.4796 7.77843 14.5556 9.16732 15.8333C9.61176 15.4306 10.0319 15.0556 10.4277 14.7083C10.8236 14.3611 11.2159 14.0208 11.6048 13.6875L11.743 13.8224L12.0423 14.1146L12.3417 14.4068L12.4798 14.5417C12.1048 14.875 11.7159 15.2153 11.3132 15.5625C10.9104 15.9097 10.4798 16.2917 10.0215 16.7083L9.16732 17.4792ZM15.209 14.1667V11.4583H12.5007V10.2083H15.209V7.5H16.459V10.2083H19.1673V11.4583H16.459V14.1667H15.209Z" fill="#333333"/>
</svg>
