<svg width="360" height="200" viewBox="0 0 360 200" fill="none" xmlns="http://www.w3.org/2000/svg">
<rect width="360" height="200" fill="#F3F3F3"/>
<path d="M190.5 80.625C190.981 80.625 191.375 81.0187 191.375 81.5V98.9891L191.102 98.6336L183.664 89.0086C183.418 88.6859 183.03 88.5 182.625 88.5C182.22 88.5 181.837 88.6859 181.586 89.0086L177.047 94.882L175.379 92.5469C175.133 92.2023 174.739 92 174.312 92C173.886 92 173.492 92.2023 173.246 92.5523L168.871 98.6773L168.625 99.0164V99V81.5C168.625 81.0187 169.019 80.625 169.5 80.625H190.5ZM169.5 78C167.57 78 166 79.5695 166 81.5V99C166 100.93 167.57 102.5 169.5 102.5H190.5C192.43 102.5 194 100.93 194 99V81.5C194 79.5695 192.43 78 190.5 78H169.5ZM173.875 88.5C174.22 88.5 174.561 88.4321 174.88 88.3002C175.198 88.1683 175.487 87.9749 175.731 87.7312C175.975 87.4874 176.168 87.198 176.3 86.8795C176.432 86.5611 176.5 86.2197 176.5 85.875C176.5 85.5303 176.432 85.1889 176.3 84.8705C176.168 84.552 175.975 84.2626 175.731 84.0188C175.487 83.7751 175.198 83.5817 174.88 83.4498C174.561 83.3179 174.22 83.25 173.875 83.25C173.53 83.25 173.189 83.3179 172.87 83.4498C172.552 83.5817 172.263 83.7751 172.019 84.0188C171.775 84.2626 171.582 84.552 171.45 84.8705C171.318 85.1889 171.25 85.5303 171.25 85.875C171.25 86.2197 171.318 86.5611 171.45 86.8795C171.582 87.198 171.775 87.4874 172.019 87.7312C172.263 87.9749 172.552 88.1683 172.87 88.3002C173.189 88.4321 173.53 88.5 173.875 88.5Z" fill="#797979"/>
<path d="M144.234 122.493C144.221 120.35 144.795 118.205 145.207 116.113C145.357 115.354 145.491 113.646 145.983 113C146.222 112.687 146.509 113.746 146.516 113.764C146.865 114.679 147.321 115.456 147.897 116.249C148.664 117.304 149.493 118.32 150.248 119.381C150.404 119.599 150.489 119.928 150.65 120.116C150.968 120.487 151.172 120.919 151.461 121.308C151.529 121.399 151.723 118.824 151.782 118.442C152.035 116.819 152.479 114.632 153.213 113.126" stroke="#797979" stroke-width="2.04835" stroke-linecap="round"/>
<path d="M157.977 116.557C156.689 118.196 156.142 121.794 159.013 121.759C161.405 121.73 164.083 120.599 163.974 117.972C163.937 117.092 163.894 115.349 162.65 115.314C161.136 115.27 158.678 115.442 157.563 116.557" stroke="#797979" stroke-width="2.04835" stroke-linecap="round"/>
<path d="M173.168 114.417C173.168 117.114 172.961 119.799 172.961 122.497" stroke="#797979" stroke-width="2.04835" stroke-linecap="round"/>
<path d="M177.414 121.849C177.414 121.115 178.612 114.002 179.589 114.436C179.936 114.59 181.418 118.928 181.776 118.361C182.397 117.378 182.798 116.324 183.491 115.357C184.167 114.414 184.236 116.172 184.297 116.738C184.453 118.2 184.614 119.831 185.079 121.227" stroke="#797979" stroke-width="2.04835" stroke-linecap="round"/>
<path d="M188.992 121.656C188.921 120.904 192.176 114.12 192.607 114.427C193.507 115.071 193.841 116.477 194.299 117.409C195.027 118.892 196.09 120.191 196.865 121.656" stroke="#797979" stroke-width="2.04835" stroke-linecap="round"/>
<path d="M190.857 119.377H195.208" stroke="#797979" stroke-width="2.04835" stroke-linecap="round"/>
<path d="M205.34 115.363C205.105 114.188 203.093 114.351 202.279 114.58C200.615 115.048 200.51 118.081 200.587 119.345C200.669 120.697 201.765 121.602 203.05 121.256C204.115 120.969 203.974 120.125 204.304 119.299" stroke="#797979" stroke-width="2.04835" stroke-linecap="round"/>
<path d="M203.683 118.884C204.858 118.845 206.032 118.751 207.205 118.677" stroke="#797979" stroke-width="2.04835" stroke-linecap="round"/>
<path d="M205.34 119.713C205.481 120.63 205.944 121.507 206.169 122.407" stroke="#797979" stroke-width="2.04835" stroke-linecap="round"/>
<path d="M211.355 114.712C213.021 114.666 214.649 114.413 216.32 114.367" stroke="#797979" stroke-width="2.04835" stroke-linecap="round"/>
<path d="M211.176 115.754C211.645 117.61 212.163 119.455 212.678 121.297C212.761 121.594 212.823 122.061 213.063 122.288C213.947 123.124 216.868 122.435 217.994 122.404" stroke="#797979" stroke-width="2.04835" stroke-linecap="round"/>
<path d="M213.357 119.632C214.572 119.511 215.684 118.738 216.855 118.705" stroke="#797979" stroke-width="2.04835" stroke-linecap="round"/>
</svg>
