<svg width="20" height="16" viewBox="0 0 20 16" fill="none" xmlns="http://www.w3.org/2000/svg">
<path d="M19.8052 14.3156L11.3209 7.75934C12.8771 7.20934 13.999 5.74372 13.999 3.99998C13.999 1.79062 12.2084 0 9.99903 0C7.90216 0 6.20217 1.61874 6.03342 3.66873L1.42095 0.106249C1.2022 -0.0624997 0.8897 -0.0249999 0.717826 0.193749L0.105329 0.981245C-0.0634199 1.19999 -0.0259201 1.51249 0.192829 1.68124L18.5802 15.8905C18.799 16.0593 19.1115 16.0218 19.2834 15.803L19.8959 15.0124C20.0646 14.7999 20.024 14.4843 19.8052 14.3156ZM2.99906 13.1999V14.4999C2.99906 15.328 3.67094 15.9999 4.49906 15.9999H15.4428L6.4803 9.07183C4.50531 9.41558 2.99906 11.1249 2.99906 13.1999Z" fill="#8A8787"/>
</svg>
