<svg width="20" height="20" viewBox="0 0 20 20" fill="none" xmlns="http://www.w3.org/2000/svg">
<path d="M1.66732 15.8333V14.5625H18.334V15.8333H1.66732ZM2.45898 10.5417L1.62565 10.0833L2.45898 8.66667H0.833984V7.72917H2.45898L1.62565 6.3125L2.45898 5.85417L3.25065 7.25L4.04232 5.85417L4.87565 6.3125L4.04232 7.72917H5.66732V8.66667H4.04232L4.87565 10.0833L4.04232 10.5417L3.25065 9.14583L2.45898 10.5417ZM9.20898 10.5417L8.37565 10.0417L9.20898 8.625H7.58398V7.6875H9.20898L8.37565 6.27083L9.20898 5.8125L10.0007 7.20833L10.7923 5.8125L11.6257 6.27083L10.7923 7.6875H12.4173V8.625H10.7923L11.6257 10.0417L10.7923 10.5417L10.0007 9.14583L9.20898 10.5417ZM15.959 10.5417L15.1257 10.0417L15.959 8.625H14.334V7.6875H15.959L15.1257 6.27083L15.959 5.8125L16.7507 7.20833L17.5423 5.8125L18.3757 6.27083L17.5423 7.6875H19.1673V8.625H17.5423L18.3757 10.0417L17.5423 10.5417L16.7507 9.14583L15.959 10.5417Z" fill="#333333"/>
</svg>
