<svg width="20" height="20" viewBox="0 0 20 20" fill="none" xmlns="http://www.w3.org/2000/svg">
<path d="M4.625 18.3333C4.01736 18.3333 3.50087 18.1206 3.07552 17.6953C2.65017 17.2699 2.4375 16.7534 2.4375 16.1458V13.5416H5.08333V1.66663L6.32917 2.91663L7.575 1.66663L8.82083 2.91663L10.0667 1.66663L11.3125 2.91663L12.5625 1.66663L13.8125 2.91663L15.0625 1.66663L16.3125 2.91663L17.5625 1.66663V16.1458C17.5625 16.7534 17.3498 17.2699 16.9245 17.6953C16.4991 18.1206 15.9826 18.3333 15.375 18.3333H4.625ZM15.375 17.0833C15.6528 17.0833 15.8785 16.9965 16.0521 16.8229C16.2257 16.6493 16.3125 16.4236 16.3125 16.1458V3.74996H6.33333V13.5416H14.4375V16.1458C14.4375 16.4236 14.5243 16.6493 14.6979 16.8229C14.8715 16.9965 15.0972 17.0833 15.375 17.0833ZM7.4375 7.04163V5.79163H12.4375V7.04163H7.4375ZM7.4375 9.83329V8.58329H12.4375V9.83329H7.4375ZM14.375 7.04163C14.2083 7.04163 14.0625 6.97913 13.9375 6.85413C13.8125 6.72913 13.75 6.58329 13.75 6.41663C13.75 6.24996 13.8125 6.10413 13.9375 5.97913C14.0625 5.85413 14.2083 5.79163 14.375 5.79163C14.5417 5.79163 14.6875 5.85413 14.8125 5.97913C14.9375 6.10413 15 6.24996 15 6.41663C15 6.58329 14.9375 6.72913 14.8125 6.85413C14.6875 6.97913 14.5417 7.04163 14.375 7.04163ZM14.375 9.72913C14.2083 9.72913 14.0625 9.66663 13.9375 9.54163C13.8125 9.41663 13.75 9.27079 13.75 9.10413C13.75 8.93746 13.8125 8.79163 13.9375 8.66663C14.0625 8.54163 14.2083 8.47913 14.375 8.47913C14.5417 8.47913 14.6875 8.54163 14.8125 8.66663C14.9375 8.79163 15 8.93746 15 9.10413C15 9.27079 14.9375 9.41663 14.8125 9.54163C14.6875 9.66663 14.5417 9.72913 14.375 9.72913ZM4.60417 17.0833H13.1875V14.7916H3.6875V16.1458C3.6875 16.4236 3.77535 16.6493 3.95104 16.8229C4.12674 16.9965 4.34444 17.0833 4.60417 17.0833Z" fill="#333333"/>
</svg>
