<svg width="68" height="35" viewBox="0 0 68 35" fill="none" xmlns="http://www.w3.org/2000/svg">
<mask id="path-1-inside-1_1776_3376" fill="white">
<path fill-rule="evenodd" clip-rule="evenodd" d="M38.4538 9L34 0L29.5462 9H13C5.8203 9 0 14.8203 0 22C0 29.1797 5.8203 35 13 35H55C62.1797 35 68 29.1797 68 22C68 14.8203 62.1797 9 55 9H38.4538Z"/>
</mask>
<path fill-rule="evenodd" clip-rule="evenodd" d="M38.4538 9L34 0L29.5462 9H13C5.8203 9 0 14.8203 0 22C0 29.1797 5.8203 35 13 35H55C62.1797 35 68 29.1797 68 22C68 14.8203 62.1797 9 55 9H38.4538Z" fill="white"/>
<path d="M34 0L34.4481 -0.221766L34 -1.12731L33.5519 -0.221766L34 0ZM38.4538 9L38.0057 9.22177L38.1434 9.5H38.4538V9ZM29.5462 9V9.5H29.8566L29.9943 9.22177L29.5462 9ZM33.5519 0.221766L38.0057 9.22177L38.902 8.77823L34.4481 -0.221766L33.5519 0.221766ZM29.9943 9.22177L34.4481 0.221766L33.5519 -0.221766L29.098 8.77823L29.9943 9.22177ZM13 9.5H29.5462V8.5H13V9.5ZM0.5 22C0.5 15.0964 6.09644 9.5 13 9.5V8.5C5.54416 8.5 -0.5 14.5442 -0.5 22H0.5ZM13 34.5C6.09644 34.5 0.5 28.9036 0.5 22H-0.5C-0.5 29.4558 5.54416 35.5 13 35.5V34.5ZM55 34.5H13V35.5H55V34.5ZM67.5 22C67.5 28.9036 61.9036 34.5 55 34.5V35.5C62.4558 35.5 68.5 29.4558 68.5 22H67.5ZM55 9.5C61.9036 9.5 67.5 15.0964 67.5 22H68.5C68.5 14.5442 62.4558 8.5 55 8.5V9.5ZM38.4538 9.5H55V8.5H38.4538V9.5Z" fill="#7299BE" mask="url(#path-1-inside-1_1776_3376)"/>
<path d="M21.0179 18.64H21.5679V19.48C21.5679 20.54 21.1179 21.97 19.9579 22.59L19.5679 22.05C20.5879 21.5 21.0179 20.31 21.0179 19.48V18.64ZM21.1779 18.64H21.7179V19.48C21.7179 20.21 21.9879 21.49 22.9979 22.12L22.6479 22.68C21.4879 21.98 21.1779 20.43 21.1779 19.48V18.64ZM23.5879 18.64H24.1279V19.48C24.1279 20.49 23.8179 22 22.6479 22.68L22.3079 22.12C23.3079 21.51 23.5879 20.27 23.5879 19.48V18.64ZM23.7479 18.64H24.2979V19.48C24.2979 20.34 24.7279 21.52 25.7479 22.05L25.3579 22.59C24.1979 21.98 23.7479 20.58 23.7479 19.48V18.64ZM19.8579 18.4H22.4279V19.01H19.8579V18.4ZM22.8779 18.4H25.4079V19.01H22.8779V18.4ZM26.2979 17.75H27.0479V23.04H26.2979V17.75ZM21.1279 23.55H27.0479V26.64H21.1279V23.55ZM26.3179 24.15H21.8479V26.03H26.3179V24.15ZM32.0737 18.14H38.1137V21.17H32.0737V18.14ZM37.3837 18.73H32.8037V20.57H37.3837V18.73ZM31.0237 22.35H39.1537V22.96H31.0237V22.35ZM34.7237 21.01H35.4637V22.6H34.7237V21.01ZM31.9237 23.93H38.1437V26.76H37.4037V24.54H31.9237V23.93ZM40.2129 22.74H48.3829V23.35H40.2129V22.74ZM41.2629 17.99H47.3229V20.13H42.0129V21.39H41.2829V19.58H46.5929V18.58H41.2629V17.99ZM41.2829 21.14H47.5129V21.73H41.2829V21.14ZM43.9329 21.46H44.6629V23.02H43.9329V21.46ZM41.1229 24.07H47.3729V26.67H46.6329V24.68H41.1229V24.07Z" fill="#333333"/>
</svg>
