<svg width="68" height="35" viewBox="0 0 68 35" fill="none" xmlns="http://www.w3.org/2000/svg">
<mask id="path-1-inside-1_1776_3375" fill="white">
<path fill-rule="evenodd" clip-rule="evenodd" d="M38.4538 9L34 0L29.5462 9H13C5.8203 9 0 14.8203 0 22C0 29.1797 5.8203 35 13 35H55C62.1797 35 68 29.1797 68 22C68 14.8203 62.1797 9 55 9H38.4538Z"/>
</mask>
<path fill-rule="evenodd" clip-rule="evenodd" d="M38.4538 9L34 0L29.5462 9H13C5.8203 9 0 14.8203 0 22C0 29.1797 5.8203 35 13 35H55C62.1797 35 68 29.1797 68 22C68 14.8203 62.1797 9 55 9H38.4538Z" fill="white"/>
<path d="M34 0L34.4481 -0.221766L34 -1.12731L33.5519 -0.221766L34 0ZM38.4538 9L38.0057 9.22177L38.1434 9.5H38.4538V9ZM29.5462 9V9.5H29.8566L29.9943 9.22177L29.5462 9ZM33.5519 0.221766L38.0057 9.22177L38.902 8.77823L34.4481 -0.221766L33.5519 0.221766ZM29.9943 9.22177L34.4481 0.221766L33.5519 -0.221766L29.098 8.77823L29.9943 9.22177ZM13 9.5H29.5462V8.5H13V9.5ZM0.5 22C0.5 15.0964 6.09644 9.5 13 9.5V8.5C5.54416 8.5 -0.5 14.5442 -0.5 22H0.5ZM13 34.5C6.09644 34.5 0.5 28.9036 0.5 22H-0.5C-0.5 29.4558 5.54416 35.5 13 35.5V34.5ZM55 34.5H13V35.5H55V34.5ZM67.5 22C67.5 28.9036 61.9036 34.5 55 34.5V35.5C62.4558 35.5 68.5 29.4558 68.5 22H67.5ZM55 9.5C61.9036 9.5 67.5 15.0964 67.5 22H68.5C68.5 14.5442 62.4558 8.5 55 8.5V9.5ZM38.4538 9.5H55V8.5H38.4538V9.5Z" fill="#7299BE" mask="url(#path-1-inside-1_1776_3375)"/>
<path d="M25.3108 18.46H29.3208V19.08H25.3108V18.46ZM26.7108 20.46H27.4408V22.71H26.7108V20.46ZM29.0308 18.46H29.7508V18.93C29.7508 19.5 29.7508 20.4 29.5108 21.6L28.7808 21.52C29.0308 20.32 29.0308 19.5 29.0308 18.93V18.46ZM31.0408 17.76H31.7808V24.54H31.0408V17.76ZM31.4308 20.72H33.1108V21.34H31.4308V20.72ZM26.1508 25.94H32.0808V26.56H26.1508V25.94ZM26.1508 23.92H26.8908V26.13H26.1508V23.92ZM24.8508 23.07L24.7608 22.45C26.3708 22.45 28.5808 22.42 30.4208 22.16L30.4708 22.71C28.6008 23.03 26.4408 23.07 24.8508 23.07ZM40.64 17.75H41.37V26.77H40.64V17.75ZM34.54 23.96H35.28C36.77 23.96 38.12 23.9 39.75 23.64L39.83 24.25C38.17 24.52 36.81 24.58 35.28 24.58H34.54V23.96ZM34.52 18.61H38.66V21.78H35.28V24.2H34.54V21.17H37.92V19.22H34.52V18.61Z" fill="#333333"/>
</svg>
