<svg width="40" height="40" viewBox="0 0 40 40" fill="none" xmlns="http://www.w3.org/2000/svg">
<circle cx="20" cy="20" r="20" fill="#45697D"/>
<path d="M12.3676 13.8329C12.1552 13.1955 11.4647 12.854 10.8311 13.0627C10.1974 13.2714 9.85219 13.9657 10.0609 14.5993L11.9579 20.2865H11.2142C10.5427 20.2865 10.0002 20.8291 10.0002 21.5006C10.0002 22.1722 10.5427 22.7147 11.2142 22.7147H12.766L14.9172 29.1683C15.0879 29.6805 15.5774 30.0182 16.1161 29.9992C16.6549 29.9803 17.1178 29.6047 17.2468 29.0811L18.8402 22.7147H20.5855L22.179 29.0811C22.308 29.6047 22.7709 29.9803 23.3096 29.9992C23.8484 30.0182 24.3378 29.6805 24.5085 29.1683L26.6597 22.7147H28.2115C28.883 22.7147 29.4256 22.1722 29.4256 21.5006C29.4256 20.8291 28.883 20.2865 28.2115 20.2865H27.4679L29.3649 14.5993C29.5773 13.9619 29.2321 13.2752 28.5985 13.0627C27.9649 12.8502 27.2744 13.1955 27.0619 13.8291L24.9069 20.2865H22.4825L20.889 13.9202C20.7562 13.3814 20.2706 13.002 19.7129 13.002C19.1551 13.002 18.6695 13.3814 18.5367 13.9202L16.9432 20.2865H14.5151L12.3676 13.8329ZM15.327 22.7147H16.3362L15.9037 24.4448L15.327 22.7147ZM19.4473 20.2865L19.7129 19.2204L19.9784 20.2865H19.4473ZM23.0896 22.7147H24.0988L23.5221 24.4448L23.0896 22.7147Z" fill="white"/>
</svg>
