<svg width="14" height="18" viewBox="0 0 14 18" fill="none" xmlns="http://www.w3.org/2000/svg">
<path d="M1.58398 17.3333C1.25065 17.3333 0.958984 17.2083 0.708984 16.9583C0.458984 16.7083 0.333984 16.4166 0.333984 16.0833V5.24996C0.333984 4.91663 0.458984 4.62496 0.708984 4.37496C0.958984 4.12496 1.25065 3.99996 1.58398 3.99996H3.87565V3.79163C3.87565 2.91663 4.17773 2.17704 4.7819 1.57288C5.38607 0.968709 6.12565 0.666626 7.00065 0.666626C7.87565 0.666626 8.61523 0.968709 9.2194 1.57288C9.82357 2.17704 10.1257 2.91663 10.1257 3.79163V3.99996H12.4173C12.7507 3.99996 13.0423 4.12496 13.2923 4.37496C13.5423 4.62496 13.6673 4.91663 13.6673 5.24996V16.0833C13.6673 16.4166 13.5423 16.7083 13.2923 16.9583C13.0423 17.2083 12.7507 17.3333 12.4173 17.3333H1.58398ZM1.58398 16.0833H12.4173V5.24996H10.1257V7.12496C10.1257 7.30204 10.0654 7.45048 9.94492 7.57027C9.82442 7.69006 9.67512 7.74996 9.497 7.74996C9.31888 7.74996 9.17079 7.69006 9.05273 7.57027C8.93468 7.45048 8.87565 7.30204 8.87565 7.12496V5.24996H5.12565V7.12496C5.12565 7.30204 5.06541 7.45048 4.94492 7.57027C4.82442 7.69006 4.67512 7.74996 4.497 7.74996C4.31888 7.74996 4.17079 7.69006 4.05273 7.57027C3.93468 7.45048 3.87565 7.30204 3.87565 7.12496V5.24996H1.58398V16.0833ZM5.12565 3.99996H8.87565V3.79163C8.87565 3.26385 8.6951 2.8194 8.33398 2.45829C7.97287 2.09718 7.52843 1.91663 7.00065 1.91663C6.47287 1.91663 6.02843 2.09718 5.66732 2.45829C5.30621 2.8194 5.12565 3.26385 5.12565 3.79163V3.99996Z" fill="#333333"/>
</svg>
