<svg width="20" height="20" viewBox="0 0 20 20" fill="none" xmlns="http://www.w3.org/2000/svg">
<path d="M4.58398 18.3333C4.25065 18.3333 3.95898 18.2083 3.70898 17.9583C3.45898 17.7083 3.33398 17.4166 3.33398 17.0833V6.24996C3.33398 5.91663 3.45898 5.62496 3.70898 5.37496C3.95898 5.12496 4.25065 4.99996 4.58398 4.99996H6.87565V4.79163C6.87565 3.91663 7.17773 3.17704 7.7819 2.57288C8.38607 1.96871 9.12565 1.66663 10.0007 1.66663C10.8757 1.66663 11.6152 1.96871 12.2194 2.57288C12.8236 3.17704 13.1257 3.91663 13.1257 4.79163V4.99996H15.4173C15.7507 4.99996 16.0423 5.12496 16.2923 5.37496C16.5423 5.62496 16.6673 5.91663 16.6673 6.24996V17.0833C16.6673 17.4166 16.5423 17.7083 16.2923 17.9583C16.0423 18.2083 15.7507 18.3333 15.4173 18.3333H4.58398ZM4.58398 17.0833H15.4173V6.24996H13.1257V8.12496C13.1257 8.30204 13.0654 8.45048 12.9449 8.57027C12.8244 8.69006 12.6751 8.74996 12.497 8.74996C12.3189 8.74996 12.1708 8.69006 12.0527 8.57027C11.9347 8.45048 11.8757 8.30204 11.8757 8.12496V6.24996H8.12565V8.12496C8.12565 8.30204 8.06541 8.45048 7.94492 8.57027C7.82442 8.69006 7.67512 8.74996 7.497 8.74996C7.31888 8.74996 7.17079 8.69006 7.05273 8.57027C6.93468 8.45048 6.87565 8.30204 6.87565 8.12496V6.24996H4.58398V17.0833ZM8.12565 4.99996H11.8757V4.79163C11.8757 4.26385 11.6951 3.8194 11.334 3.45829C10.9729 3.09718 10.5284 2.91663 10.0007 2.91663C9.47287 2.91663 9.02843 3.09718 8.66732 3.45829C8.30621 3.8194 8.12565 4.26385 8.12565 4.79163V4.99996Z" fill="#333333"/>
</svg>
