<svg stroke-width="0.2" width="20" height="20" viewBox="0 0 20 20" fill="none" xmlns="http://www.w3.org/2000/svg">
<g clip-path="url(#clip0_1612_2510)">
<path d="M8.667 7.08331V7.58331H9.167H10.0003C10.0887 7.58331 10.1735 7.61843 10.236 7.68094C10.2985 7.74345 10.3337 7.82824 10.3337 7.91664C10.3337 8.00505 10.2985 8.08983 10.236 8.15234C10.1735 8.21486 10.0887 8.24998 10.0003 8.24998H7.917C7.67388 8.24998 7.44073 8.34655 7.26882 8.51846L7.62237 8.87201L7.26882 8.51846C7.09691 8.69037 7.00033 8.92353 7.00033 9.16664C7.00033 9.40976 7.09691 9.64291 7.26882 9.81482C7.44073 9.98673 7.67388 10.0833 7.917 10.0833H8.75033H8.75083C9.14349 10.0829 9.52228 10.2284 9.81367 10.4916C10.1051 10.7548 10.2883 11.1169 10.3277 11.5075C10.3672 11.8982 10.2601 12.2896 10.0272 12.6057C9.79434 12.9218 9.4523 13.1402 9.0675 13.2183L8.667 13.2996V13.7083V14.1666C8.667 14.255 8.63188 14.3398 8.56937 14.4023C8.50686 14.4649 8.42207 14.5 8.33367 14.5C8.24526 14.5 8.16047 14.4649 8.09796 14.4023C8.03545 14.3398 8.00033 14.255 8.00033 14.1666V13.75V13.25H7.50033H6.667C6.57859 13.25 6.49381 13.2149 6.4313 13.1523C6.36878 13.0898 6.33367 13.005 6.33367 12.9166C6.33367 12.8282 6.36878 12.7435 6.4313 12.6809C6.49381 12.6184 6.57859 12.5833 6.667 12.5833H8.75033C8.99345 12.5833 9.2266 12.4867 9.39851 12.3148C9.57042 12.1429 9.667 11.9098 9.667 11.6666C9.667 11.4235 9.57042 11.1904 9.39851 11.0185C9.2266 10.8466 8.99345 10.75 8.75033 10.75H7.917H7.9165C7.52385 10.7504 7.14505 10.6049 6.85366 10.3417C6.56226 10.0785 6.37905 9.71643 6.33959 9.32577C6.30013 8.9351 6.40723 8.54371 6.64011 8.22758C6.87299 7.91144 7.21503 7.69311 7.59983 7.61498L8.00033 7.53365V7.12498V6.66664C8.00033 6.57824 8.03545 6.49345 8.09796 6.43094C8.16048 6.36843 8.24526 6.33331 8.33367 6.33331C8.42207 6.33331 8.50686 6.36843 8.56937 6.43094C8.63188 6.49345 8.667 6.57824 8.667 6.66664V7.08331ZM10.1488 10.1205C9.76539 9.77426 9.26698 9.58279 8.75033 9.58331L7.50033 7.12498C6.99402 7.22779 6.54397 7.51506 6.23755 7.93103C5.93113 8.347 5.7902 8.86198 5.84212 9.37602C5.89404 9.89005 6.13511 10.3664 6.51853 10.7127C6.90194 11.059 7.40035 11.2505 7.917 11.25H8.75033C8.86084 11.25 8.96682 11.2939 9.04496 11.372C9.1231 11.4502 9.167 11.5561 9.167 11.6666C9.167 11.7771 9.1231 11.8831 9.04496 11.9613C8.96682 12.0394 8.86084 12.0833 8.75033 12.0833H6.667C6.44599 12.0833 6.23402 12.1711 6.07774 12.3274C5.92146 12.4837 5.83367 12.6956 5.83367 12.9166C5.83367 13.1377 5.92146 13.3496 6.07774 13.5059C6.23402 13.6622 6.44599 13.75 6.667 13.75H7.00033H7.50033V14.1666C7.50033 14.3877 7.58813 14.5996 7.74441 14.7559C7.90069 14.9122 8.11265 15 8.33367 15C8.55468 15 8.76664 14.9122 8.92292 14.7559C9.0792 14.5996 9.167 14.3877 9.167 14.1666V13.7083C9.67331 13.6055 10.1234 13.3182 10.4298 12.9023C10.7362 12.4863 10.8771 11.9713 10.8252 11.4573C10.7733 10.9432 10.5322 10.4668 10.1488 10.1205ZM14.5003 9.99998V10.5H15.0003H17.5003C17.5887 10.5 17.6735 10.5351 17.736 10.5976L18.0896 10.2441L17.736 10.5976C17.7985 10.6601 17.8337 10.7449 17.8337 10.8333V15.8333C17.8337 16.3637 17.623 16.8725 17.2479 17.2475C16.8728 17.6226 16.3641 17.8333 15.8337 17.8333H4.167C3.63657 17.8333 3.12786 17.6226 2.75279 17.2475L2.40709 17.5932L2.75279 17.2475C2.37771 16.8724 2.167 16.3637 2.167 15.8333V2.49998H2.167L2.16699 2.49799C2.16676 2.43925 2.18205 2.3815 2.21132 2.33057C2.24059 2.27965 2.28279 2.23736 2.33366 2.20799L2.33367 2.20799C2.38434 2.17873 2.44182 2.16333 2.50033 2.16333C2.55884 2.16333 2.61633 2.17873 2.667 2.20799L2.667 2.20799L2.66831 2.20874L5.16831 3.64207L5.417 3.78466L5.66569 3.64207L8.16569 2.20874L8.167 2.20799C8.21767 2.17873 8.27515 2.16333 8.33367 2.16333C8.39218 2.16333 8.44966 2.17873 8.50033 2.20799L8.50164 2.20874L11.0016 3.64207L11.2503 3.78466L11.499 3.64207L13.999 2.20874L14.0003 2.20799C14.051 2.17873 14.1085 2.16333 14.167 2.16333C14.2255 2.16333 14.283 2.17873 14.3337 2.20799L14.5837 1.77498L14.3337 2.20799C14.3845 2.23736 14.4267 2.27965 14.456 2.33057C14.4853 2.3815 14.5006 2.43925 14.5003 2.49799V2.49998V9.99998ZM3.58127 3.50725L2.83367 3.08112V3.94164V15.8333C2.83367 16.1869 2.97414 16.5261 3.22419 16.7761C3.47424 17.0262 3.81338 17.1666 4.167 17.1666H13.4837H14.1971L13.9537 16.496C13.8762 16.2828 13.8357 16.058 13.8337 15.8312V3.94164V3.08112L13.0861 3.50725L11.429 4.45179C11.3735 4.47947 11.3124 4.4939 11.2503 4.4939C11.1885 4.4939 11.1275 4.47955 11.0721 4.45202L8.58236 3.02454L8.33367 2.88196L8.08497 3.02454L5.59519 4.45202C5.53986 4.47955 5.47887 4.4939 5.417 4.4939C5.35496 4.4939 5.29381 4.47947 5.23836 4.4518L3.58127 3.50725ZM15.0003 11.1666H14.5003V11.6666V15.8333C14.5003 16.1869 14.6408 16.5261 14.8909 16.7761C15.1409 17.0262 15.48 17.1666 15.8337 17.1666C16.1873 17.1666 16.5264 17.0262 16.7765 16.7761C17.0265 16.5261 17.167 16.1869 17.167 15.8333V11.6666V11.1666H16.667H15.0003Z" fill="black" stroke="black"/>
</g>
<defs>
<clipPath id="clip0_1612_2510">
<rect width="20" height="20" fill="white"/>
</clipPath>
</defs>
</svg>
