<?xml version="1.0" encoding="UTF-8"?>
<svg id="_레이어_2" data-name="레이어 2" xmlns="http://www.w3.org/2000/svg" viewBox="0 0 299.05 60.38">
  <defs>
    <style>
      .cls-1 {
        fill: #7299be;
      }

      .cls-2 {
        fill: #231815;
      }
    </style>
  </defs>
  <g id="_레이어_1-2" data-name="레이어 1">
    <path class="cls-2" d="m50.03,31.73c0-4.72-1.99-7.08-5.76-7.08-4.8,0-7.82,3.69-7.82,10.26v17.75c0,3.16-2.56,5.72-5.72,5.72h0c-3.16,0-5.72-2.56-5.72-5.72v-20.92c0-4.72-1.99-7.08-5.76-7.08-4.72,0-7.75,3.69-7.75,10.26v17.75c0,3.16-2.56,5.72-5.72,5.72h-.07c-3.16,0-5.72-2.56-5.72-5.72v-30.22c0-3.18,2.58-5.76,5.76-5.76h0c3.18,0,5.76,2.58,5.76,5.76v1.25c1.48-4.87,5.39-8.04,11.36-8.04s10.4,2.88,12.32,8.12c2.44-5.46,6.86-8.12,12.69-8.12,8.63,0,13.58,5.76,13.58,16.38v20.63c0,3.16-2.56,5.72-5.72,5.72h0c-3.16,0-5.72-2.56-5.72-5.72v-20.92Z"/>
    <path class="cls-1" d="m87.14,59.4c-13.28,0-19.48-8.41-19.48-21.92s6.2-21.84,19.48-21.84,19.41,8.41,19.41,21.84-6.2,21.92-19.41,21.92Zm0-34.83c-5.76,0-7.97,4.21-7.97,12.91s2.21,12.99,7.97,12.99,7.9-4.21,7.9-12.99-2.14-12.91-7.9-12.91Z"/>
    <path class="cls-1" d="m185.76,0h0c3.16,0,5.72,2.56,5.72,5.72v46.93c0,3.16-2.56,5.72-5.72,5.72h0c-3.16,0-5.72-2.56-5.72-5.72v-.7c-1.48,4.5-5.68,7.45-11.44,7.45-9.81,0-15.94-7.01-15.94-21.92s6.12-21.84,15.94-21.84c5.76,0,9.96,2.95,11.44,7.45V5.72c0-3.16,2.56-5.72,5.72-5.72Zm-13.69,24.65c-5.76,0-7.97,4.21-7.97,12.84s2.21,12.99,7.97,12.99,7.97-4.21,7.97-12.99-2.14-12.84-7.97-12.84Z"/>
    <path class="cls-2" d="m209.33,40.66c.29,6.71,2.95,10.33,7.9,10.33,2.69,0,4.7-.98,5.87-2.78,1.08-1.66,3.03-2.54,5-2.54h4.97c1.42,0,2.46,1.39,2.02,2.74-2.23,6.86-8.51,10.98-17.87,10.98-13.21,0-19.41-8.34-19.41-21.92s6.2-21.84,19.41-21.84,19.41,8.41,19.41,21.84v.03c0,1.73-1.41,3.14-3.14,3.14h-24.16Zm.07-7.23h13.38c1.23,0,2.16-1.11,1.96-2.32-.76-4.56-3.32-6.98-7.52-6.98-4.94,0-7.6,3.25-7.82,9.3Z"/>
    <path class="cls-2" d="m248.58,16.68h0c3.18,0,5.76,2.58,5.76,5.76v20.44c0,5.17,2.14,7.6,5.98,7.6,4.8,0,8.04-3.69,8.04-10.26v-17.78c0-3.18,2.58-5.76,5.76-5.76h0c3.18,0,5.76,2.58,5.76,5.76v30.18c0,3.18-2.58,5.76-5.76,5.76h0c-3.18,0-5.76-2.58-5.76-5.76v-1.18c-1.48,4.8-5.76,7.97-11.66,7.97-8.93,0-13.87-5.61-13.87-16.31v-20.66c0-3.18,2.58-5.76,5.76-5.76Z"/>
    <path class="cls-2" d="m287.54,52.61V5.76c0-3.18,2.58-5.76,5.76-5.76h0c3.18,0,5.76,2.58,5.76,5.76v46.86c0,3.18-2.58,5.76-5.76,5.76h0c-3.18,0-5.76-2.58-5.76-5.76Z"/>
    <path class="cls-1" d="m129.53,60.38c-9.93,0-17.35-5.23-17.47-5.31-1.27-.92-1.56-2.69-.64-3.96.91-1.27,2.68-1.56,3.95-.65.57.41,13.65,9.47,27.18-.02,1.28-.9,3.05-.59,3.95.69.9,1.28.59,3.05-.69,3.95-5.66,3.96-11.29,5.29-16.28,5.29Z"/>
    <path class="cls-1" d="m77.31,18.01s-4.41-.59-7.35-4.88c0,0,1.1,7.29,3.27,8.09"/>
  </g>
</svg>