<svg width="36" height="36" viewBox="0 0 36 36" fill="none" xmlns="http://www.w3.org/2000/svg">
<circle cx="18" cy="18" r="18" fill="#F7F5F5"/>
<circle cx="18" cy="18" r="15" fill="#2D2C2C"/>
<path d="M20.0435 13.3174L13.8915 20.25C13.82 20.3306 13.82 20.3306 13.82 20.4112L12.89 23.6357C12.8185 23.9581 13.1047 24.2806 13.3908 24.2L14.5354 23.7969L16.3237 23.152C16.3953 23.152 16.4668 23.0714 16.4668 23.0714L22.6187 16.1388L20.0435 13.3174Z" fill="white"/>
<path d="M24.1219 11.5441C23.4066 10.8186 22.3336 10.8186 21.6182 11.5441L20.7598 12.5115L23.192 15.2523L24.0503 14.285C24.408 13.8819 24.5511 13.3982 24.5511 12.9145C24.6227 12.4309 24.4796 11.8666 24.1219 11.5441Z" fill="white"/>
<path d="M12 25.0917C12 24.849 12.1968 24.6522 12.4395 24.6522H22.1087C22.3514 24.6522 22.5482 24.849 22.5482 25.0917C22.5482 25.3345 22.3514 25.5312 22.1087 25.5312H12.4395C12.1968 25.5312 12 25.3345 12 25.0917Z" fill="white"/>
</svg>
