<svg width="40" height="40" viewBox="0 0 40 40" fill="none" xmlns="http://www.w3.org/2000/svg">
<circle cx="20" cy="22" r="18" fill="#F7F5F5"/>
<circle cx="20" cy="22" r="15" fill="#030000"/>
<path fill-rule="evenodd" clip-rule="evenodd" d="M28.25 28.25C28.25 29.4926 27.0747 30.5 25.625 30.5H13.375C11.9253 30.5 10.75 29.4926 10.75 28.25V17.75C10.75 16.5074 11.9253 15.5 13.375 15.5H16.8754C17.3584 15.5 17.75 15.8356 17.75 16.2496C17.75 16.6637 17.3585 16.9993 16.8754 16.9994L13.375 17C12.8918 17 12.5 17.3358 12.5 17.75V27.7085L16.163 23.3141C16.4376 22.9845 16.9621 22.9053 17.3486 23.1192L17.4352 23.1738L21.9369 26.3885L23.147 24.834C23.4328 24.4664 24.0181 24.3939 24.4123 24.6579L24.4937 24.7197L26.5 26.4388V25.25C26.5 24.8358 26.8918 24.5 27.375 24.5C27.8582 24.5 28.25 24.8358 28.25 25.25V28.25ZM17.0386 24.8435L13.5745 29H25.625C26.0003 29 26.3204 28.7975 26.4447 28.513L24.0106 26.4275L22.853 27.916C22.5838 28.2622 22.043 28.3503 21.6473 28.1285L21.5648 28.0762L17.0386 24.8435ZM23.875 15.5C24.3582 15.5 24.75 15.8358 24.75 16.25V18.5H27.375C27.8582 18.5 28.25 18.8358 28.25 19.25C28.25 19.6642 27.8582 20 27.375 20H24.75V22.25C24.75 22.6642 24.3582 23 23.875 23C23.3918 23 23 22.6642 23 22.25V20H20.375C19.8918 20 19.5 19.6642 19.5 19.25C19.5 18.8358 19.8918 18.5 20.375 18.5H23V16.25C23 15.8358 23.3918 15.5 23.875 15.5ZM16 18.5C16.9665 18.5 17.75 19.1716 17.75 20C17.75 20.8284 16.9665 21.5 16 21.5C15.0335 21.5 14.25 20.8284 14.25 20C14.25 19.1716 15.0335 18.5 16 18.5Z" fill="white"/>
</svg>
