<svg width="91" height="19" viewBox="0 0 91 19" fill="none" xmlns="http://www.w3.org/2000/svg">
<g clip-path="url(#clip0_1158_2090)">
<path d="M15.2251 9.91454C15.2251 8.43976 14.6195 7.70238 13.4723 7.70238C12.0117 7.70238 11.0927 8.85532 11.0927 10.9081V16.4542C11.0927 17.4415 10.3137 18.2414 9.35213 18.2414C8.39056 18.2414 7.61156 17.4415 7.61156 16.4542V9.91766C7.61156 8.44289 7.00601 7.7055 5.85881 7.7055C4.42252 7.7055 3.5005 8.85845 3.5005 10.9113V16.4573C3.5005 17.4446 2.7215 18.2445 1.75993 18.2445H1.73863C0.777047 18.2445 -0.00195312 17.4446 -0.00195312 16.4573V7.01498C-0.00195312 6.02138 0.783133 5.21526 1.7508 5.21526C2.71846 5.21526 3.50355 6.02138 3.50355 7.01498V7.40555C3.95391 5.88391 5.14371 4.89343 6.96036 4.89343C8.77701 4.89343 10.125 5.79329 10.7093 7.43054C11.4518 5.72456 12.7968 4.89343 14.5708 4.89343C17.1969 4.89343 18.7032 6.69316 18.7032 10.0114V16.4573C18.7032 17.4446 17.9242 18.2445 16.9626 18.2445C16.001 18.2445 15.222 17.4446 15.222 16.4573V9.92079L15.2251 9.91454Z" fill="#231815"/>
<path d="M26.5175 18.5594C22.4765 18.5594 20.5898 15.9317 20.5898 11.7104C20.5898 7.4892 22.4765 4.88647 26.5175 4.88647C30.5586 4.88647 32.424 7.5142 32.424 11.7104C32.424 15.9067 30.5373 18.5594 26.5175 18.5594ZM26.5175 7.67667C24.7648 7.67667 24.0923 8.99209 24.0923 11.7104C24.0923 14.4288 24.7648 15.7692 26.5175 15.7692C28.2703 15.7692 28.9215 14.4538 28.9215 11.7104C28.9215 8.9671 28.2703 7.67667 26.5175 7.67667Z" fill="#7299BE"/>
<path d="M56.5273 0C57.4889 0 58.2679 0.799877 58.2679 1.78723V16.4506C58.2679 17.4379 57.4889 18.2378 56.5273 18.2378C55.5657 18.2378 54.7867 17.4379 54.7867 16.4506V16.2319C54.3364 17.6379 53.0583 18.5597 51.3056 18.5597C48.3204 18.5597 46.4551 16.3694 46.4551 11.7107C46.4551 7.05204 48.3174 4.88675 51.3056 4.88675C53.0583 4.88675 54.3364 5.80848 54.7867 7.21452V1.78723C54.7867 0.799877 55.5657 0 56.5273 0ZM52.3615 7.70194C50.6087 7.70194 49.9362 9.01737 49.9362 11.7138C49.9362 14.4103 50.6087 15.7726 52.3615 15.7726C54.1142 15.7726 54.7867 14.4572 54.7867 11.7138C54.7867 8.9705 54.1355 7.70194 52.3615 7.70194Z" fill="#7299BE"/>
<path d="M63.6989 12.7041C63.7871 14.8006 64.5965 15.9317 66.1028 15.9317C66.9214 15.9317 67.533 15.6255 67.889 15.0631C68.2177 14.5444 68.8111 14.2695 69.4105 14.2695H70.9229C71.355 14.2695 71.6714 14.7038 71.5375 15.1256C70.859 17.269 68.948 18.5563 66.0998 18.5563C62.08 18.5563 60.1934 15.9505 60.1934 11.7074C60.1934 7.46428 62.08 4.88342 66.0998 4.88342C70.1195 4.88342 72.0062 7.51114 72.0062 11.7074V11.7167C72.0062 12.2573 71.5771 12.6978 71.0507 12.6978H63.6989V12.7041ZM63.7202 10.4451H67.7917C68.1659 10.4451 68.4489 10.0982 68.3881 9.72018C68.1568 8.2954 67.3778 7.53926 66.0998 7.53926C64.5965 7.53926 63.7871 8.55473 63.7202 10.4451Z" fill="#231815"/>
<path d="M75.6442 5.2113C76.6119 5.2113 77.397 6.01743 77.397 7.01103V13.3975C77.397 15.0129 78.0482 15.7722 79.2167 15.7722C80.6773 15.7722 81.6632 14.6192 81.6632 12.5664V7.01103C81.6632 6.01743 82.4483 5.2113 83.416 5.2113C84.3836 5.2113 85.1687 6.01743 85.1687 7.01103V16.4408C85.1687 17.4344 84.3836 18.2406 83.416 18.2406C82.4483 18.2406 81.6632 17.4344 81.6632 16.4408V16.0721C81.2129 17.5719 79.9105 18.5624 78.1151 18.5624C75.3978 18.5624 73.8945 16.8095 73.8945 13.4663V7.01103C73.8945 6.01743 74.6796 5.2113 75.6473 5.2113H75.6442Z" fill="#231815"/>
<path d="M87.498 16.4381V1.79972C87.498 0.806126 88.2831 0 89.2508 0C90.2185 0 91.0035 0.806126 91.0035 1.79972V16.4412C91.0035 17.4348 90.2185 18.2409 89.2508 18.2409C88.2831 18.2409 87.498 17.4348 87.498 16.4412V16.4381Z" fill="#231815"/>
<path d="M39.4167 18.8657C36.395 18.8657 34.1372 17.2316 34.1007 17.2066C33.7142 16.9192 33.6259 16.3661 33.9059 15.9693C34.1828 15.5725 34.7214 15.4819 35.1079 15.7662C35.2813 15.8943 39.2615 18.7251 43.3787 15.76C43.7682 15.4788 44.3068 15.5756 44.5806 15.9756C44.8545 16.3755 44.7602 16.9285 44.3707 17.2097C42.6484 18.447 40.9352 18.8626 39.4167 18.8626V18.8657Z" fill="#7299BE"/>
<path d="M23.5256 5.62718C23.5256 5.62718 22.1837 5.44284 21.2891 4.10242C21.2891 4.10242 21.6238 6.38019 22.2841 6.63015" fill="#7299BE"/>
</g>
<defs>
<clipPath id="clip0_1158_2090">
<rect width="91" height="18.8659" fill="white"/>
</clipPath>
</defs>
</svg>
