<svg width="84" height="16" viewBox="0 0 84 16" fill="none" xmlns="http://www.w3.org/2000/svg">
<g clip-path="url(#clip0_1158_2052)">
<path d="M7.52447 1.46352C7.67415 1.00287 8.32585 1.00287 8.47553 1.46353L9.68386 5.18237C9.75079 5.38838 9.94277 5.52786 10.1594 5.52786H14.0696C14.554 5.52786 14.7554 6.14767 14.3635 6.43237L11.2001 8.73075C11.0248 8.85807 10.9515 9.08375 11.0184 9.28976L12.2268 13.0086C12.3764 13.4693 11.8492 13.8523 11.4573 13.5676L8.29389 11.2693C8.11865 11.1419 7.88135 11.1419 7.70611 11.2693L4.54267 13.5676C4.15081 13.8523 3.62357 13.4693 3.77325 13.0086L4.98157 9.28976C5.04851 9.08375 4.97518 8.85807 4.79994 8.73075L1.6365 6.43237C1.24464 6.14767 1.44603 5.52786 1.93039 5.52786H5.84062C6.05723 5.52786 6.24921 5.38838 6.31614 5.18237L7.52447 1.46352Z" fill="#F7D93E"/>
<path d="M24.5245 1.46352C24.6741 1.00287 25.3259 1.00287 25.4755 1.46353L26.6839 5.18237C26.7508 5.38838 26.9428 5.52786 27.1594 5.52786H31.0696C31.554 5.52786 31.7554 6.14767 31.3635 6.43237L28.2001 8.73075C28.0248 8.85807 27.9515 9.08375 28.0184 9.28976L29.2268 13.0086C29.3764 13.4693 28.8492 13.8523 28.4573 13.5676L25.2939 11.2693C25.1186 11.1419 24.8814 11.1419 24.7061 11.2693L21.5427 13.5676C21.1508 13.8523 20.6236 13.4693 20.7732 13.0086L21.9816 9.28976C22.0485 9.08375 21.9752 8.85807 21.7999 8.73075L18.6365 6.43237C18.2446 6.14767 18.446 5.52786 18.9304 5.52786H22.8406C23.0572 5.52786 23.2492 5.38838 23.3161 5.18237L24.5245 1.46352Z" fill="#F7D93E"/>
<path d="M41.5245 1.46352C41.6741 1.00287 42.3259 1.00287 42.4755 1.46353L43.6839 5.18237C43.7508 5.38838 43.9428 5.52786 44.1594 5.52786H48.0696C48.554 5.52786 48.7554 6.14767 48.3635 6.43237L45.2001 8.73075C45.0248 8.85807 44.9515 9.08375 45.0184 9.28976L46.2268 13.0086C46.3764 13.4693 45.8492 13.8523 45.4573 13.5676L42.2939 11.2693C42.1186 11.1419 41.8814 11.1419 41.7061 11.2693L38.5427 13.5676C38.1508 13.8523 37.6236 13.4693 37.7732 13.0086L38.9816 9.28976C39.0485 9.08375 38.9752 8.85807 38.7999 8.73075L35.6365 6.43237C35.2446 6.14767 35.446 5.52786 35.9304 5.52786H39.8406C40.0572 5.52786 40.2492 5.38838 40.3161 5.18237L41.5245 1.46352Z" fill="#F7D93E"/>
<path d="M58.5245 1.46352C58.6741 1.00287 59.3259 1.00287 59.4755 1.46353L60.6839 5.18237C60.7508 5.38838 60.9428 5.52786 61.1594 5.52786H65.0696C65.554 5.52786 65.7554 6.14767 65.3635 6.43237L62.2001 8.73075C62.0248 8.85807 61.9515 9.08375 62.0184 9.28976L63.2268 13.0086C63.3764 13.4693 62.8492 13.8523 62.4573 13.5676L59.2939 11.2693C59.1186 11.1419 58.8814 11.1419 58.7061 11.2693L55.5427 13.5676C55.1508 13.8523 54.6236 13.4693 54.7732 13.0086L55.9816 9.28976C56.0485 9.08375 55.9752 8.85807 55.7999 8.73075L52.6365 6.43237C52.2446 6.14767 52.446 5.52786 52.9304 5.52786H56.8406C57.0572 5.52786 57.2492 5.38838 57.3161 5.18237L58.5245 1.46352Z" fill="#F7D93E"/>
<path d="M75.5245 1.46352C75.6741 1.00287 76.3259 1.00287 76.4755 1.46353L77.6839 5.18237C77.7508 5.38838 77.9428 5.52786 78.1594 5.52786H82.0696C82.554 5.52786 82.7554 6.14767 82.3635 6.43237L79.2001 8.73075C79.0248 8.85807 78.9515 9.08375 79.0184 9.28976L80.2268 13.0086C80.3764 13.4693 79.8492 13.8523 79.4573 13.5676L76.2939 11.2693C76.1186 11.1419 75.8814 11.1419 75.7061 11.2693L72.5427 13.5676C72.1508 13.8523 71.6236 13.4693 71.7732 13.0086L72.9816 9.28976C73.0485 9.08375 72.9752 8.85807 72.7999 8.73075L69.6365 6.43237C69.2446 6.14767 69.446 5.52786 69.9304 5.52786H73.8406C74.0572 5.52786 74.2492 5.38838 74.3161 5.18237L75.5245 1.46352Z" fill="#F7D93E"/>
</g>
<defs>
<clipPath id="clip0_1158_2052">
<rect width="84" height="16" rx="5" fill="white"/>
</clipPath>
</defs>
</svg>
