<svg width="68" height="35" viewBox="0 0 68 35" fill="none" xmlns="http://www.w3.org/2000/svg">
<mask id="path-1-inside-1_1776_3378" fill="white">
<path fill-rule="evenodd" clip-rule="evenodd" d="M38.4538 9L34 0L29.5462 9H13C5.8203 9 0 14.8203 0 22C0 29.1797 5.8203 35 13 35H55C62.1797 35 68 29.1797 68 22C68 14.8203 62.1797 9 55 9H38.4538Z"/>
</mask>
<path fill-rule="evenodd" clip-rule="evenodd" d="M38.4538 9L34 0L29.5462 9H13C5.8203 9 0 14.8203 0 22C0 29.1797 5.8203 35 13 35H55C62.1797 35 68 29.1797 68 22C68 14.8203 62.1797 9 55 9H38.4538Z" fill="white"/>
<path d="M34 0L34.4481 -0.221766L34 -1.12731L33.5519 -0.221766L34 0ZM38.4538 9L38.0057 9.22177L38.1434 9.5H38.4538V9ZM29.5462 9V9.5H29.8566L29.9943 9.22177L29.5462 9ZM33.5519 0.221766L38.0057 9.22177L38.902 8.77823L34.4481 -0.221766L33.5519 0.221766ZM29.9943 9.22177L34.4481 0.221766L33.5519 -0.221766L29.098 8.77823L29.9943 9.22177ZM13 9.5H29.5462V8.5H13V9.5ZM0.5 22C0.5 15.0964 6.09644 9.5 13 9.5V8.5C5.54416 8.5 -0.5 14.5442 -0.5 22H0.5ZM13 34.5C6.09644 34.5 0.5 28.9036 0.5 22H-0.5C-0.5 29.4558 5.54416 35.5 13 35.5V34.5ZM55 34.5H13V35.5H55V34.5ZM67.5 22C67.5 28.9036 61.9036 34.5 55 34.5V35.5C62.4558 35.5 68.5 29.4558 68.5 22H67.5ZM55 9.5C61.9036 9.5 67.5 15.0964 67.5 22H68.5C68.5 14.5442 62.4558 8.5 55 8.5V9.5ZM38.4538 9.5H55V8.5H38.4538V9.5Z" fill="#7299BE" mask="url(#path-1-inside-1_1776_3378)"/>
<path d="M20.3116 23.47H21.0416V26.77H20.3116V23.47ZM16.6116 23.21H24.7516V23.83H16.6116V23.21ZM20.3116 19.29H20.9616V19.53C20.9616 21.09 19.2016 22.2 17.4116 22.49L17.1416 21.89C18.6916 21.68 20.3116 20.7 20.3116 19.53V19.29ZM20.4016 19.29H21.0516V19.53C21.0516 20.69 22.6616 21.68 24.2116 21.89L23.9416 22.49C22.1516 22.21 20.4016 21.07 20.4016 19.53V19.29ZM17.4116 18.88H23.9516V19.49H17.4116V18.88ZM20.3116 17.75H21.0416V19.09H20.3116V17.75ZM28.1008 19.44H28.7108V19.91C28.7108 21.53 27.6808 22.83 26.2208 23.36L25.8508 22.78C27.1608 22.33 28.1008 21.21 28.1008 19.91V19.44ZM28.2208 19.44H28.8308V19.91C28.8308 21.13 29.8008 22.19 31.1108 22.61L30.7508 23.2C29.2808 22.71 28.2208 21.46 28.2208 19.91V19.44ZM26.0608 18.99H30.8608V19.59H26.0608V18.99ZM28.1008 17.81H28.8408V19.21H28.1008V17.81ZM30.5508 20.55H32.8608V21.17H30.5508V20.55ZM32.4508 17.77H33.1908V24.49H32.4508V17.77ZM27.4808 25.94H33.4508V26.56H27.4808V25.94ZM27.4808 23.89H28.2208V26.25H27.4808V23.89ZM37.24 18.22H37.85V19.16C37.85 20.89 36.84 22.29 35.38 22.87L34.99 22.28C36.32 21.78 37.24 20.57 37.24 19.16V18.22ZM37.37 18.22H37.97V19.21C37.97 20.45 38.92 21.59 40.19 22.04L39.8 22.62C38.39 22.09 37.37 20.77 37.37 19.21V18.22ZM41.24 17.76H41.98V23.25H41.24V17.76ZM41.78 20.13H43.33V20.75H41.78V20.13ZM39.12 23.5C40.96 23.5 42.07 24.09 42.07 25.12C42.07 26.15 40.96 26.74 39.12 26.74C37.29 26.74 36.18 26.15 36.18 25.12C36.18 24.09 37.29 23.5 39.12 23.5ZM39.12 24.09C37.76 24.09 36.91 24.47 36.91 25.12C36.91 25.77 37.76 26.15 39.12 26.15C40.49 26.15 41.34 25.77 41.34 25.12C41.34 24.47 40.49 24.09 39.12 24.09ZM47.9092 22.51H48.6392V24.1H47.9092V22.51ZM44.2092 22.13H52.3392V22.74H44.2092V22.13ZM44.9692 18.05H51.5592V18.66H44.9692V18.05ZM44.9992 20.63H51.5292V21.24H44.9992V20.63ZM46.3692 18.33H47.1092V21.04H46.3692V18.33ZM49.4292 18.33H50.1592V21.04H49.4292V18.33ZM45.2192 23.84H51.3392V26.64H45.2192V23.84ZM50.6192 24.44H45.9392V26.03H50.6192V24.44Z" fill="#333333"/>
</svg>
