<svg width="108" height="108" viewBox="0 0 108 108" fill="none" xmlns="http://www.w3.org/2000/svg">
<circle cx="54" cy="54" r="54" fill="white"/>
<path d="M54 0C24.1694 0 0 24.1694 0 54C0 83.8306 24.1694 108 54 108C83.8306 108 108 83.8306 108 54C108 24.1694 83.8306 0 54 0ZM54 20.9032C64.5823 20.9032 73.1613 29.4823 73.1613 40.0645C73.1613 50.6468 64.5823 59.2258 54 59.2258C43.4177 59.2258 34.8387 50.6468 34.8387 40.0645C34.8387 29.4823 43.4177 20.9032 54 20.9032ZM54 95.8064C41.2185 95.8064 29.7653 90.0145 22.1008 80.9565C26.1944 73.2484 34.2073 67.9355 43.5484 67.9355C44.071 67.9355 44.5936 68.0226 45.0944 68.175C47.925 69.0895 50.8863 69.6774 54 69.6774C57.1137 69.6774 60.0968 69.0895 62.9056 68.175C63.4064 68.0226 63.929 67.9355 64.4516 67.9355C73.7927 67.9355 81.8056 73.2484 85.8992 80.9565C78.2347 90.0145 66.7815 95.8064 54 95.8064Z" fill="#DDDDDD"/>
</svg>
