<svg width="68" height="35" viewBox="0 0 68 35" fill="none" xmlns="http://www.w3.org/2000/svg">
<mask id="path-1-inside-1_1776_3377" fill="white">
<path fill-rule="evenodd" clip-rule="evenodd" d="M38.4538 9L34 0L29.5462 9H13C5.8203 9 0 14.8203 0 22C0 29.1797 5.8203 35 13 35H55C62.1797 35 68 29.1797 68 22C68 14.8203 62.1797 9 55 9H38.4538Z"/>
</mask>
<path fill-rule="evenodd" clip-rule="evenodd" d="M38.4538 9L34 0L29.5462 9H13C5.8203 9 0 14.8203 0 22C0 29.1797 5.8203 35 13 35H55C62.1797 35 68 29.1797 68 22C68 14.8203 62.1797 9 55 9H38.4538Z" fill="white"/>
<path d="M34 0L34.4481 -0.221766L34 -1.12731L33.5519 -0.221766L34 0ZM38.4538 9L38.0057 9.22177L38.1434 9.5H38.4538V9ZM29.5462 9V9.5H29.8566L29.9943 9.22177L29.5462 9ZM33.5519 0.221766L38.0057 9.22177L38.902 8.77823L34.4481 -0.221766L33.5519 0.221766ZM29.9943 9.22177L34.4481 0.221766L33.5519 -0.221766L29.098 8.77823L29.9943 9.22177ZM13 9.5H29.5462V8.5H13V9.5ZM0.5 22C0.5 15.0964 6.09644 9.5 13 9.5V8.5C5.54416 8.5 -0.5 14.5442 -0.5 22H0.5ZM13 34.5C6.09644 34.5 0.5 28.9036 0.5 22H-0.5C-0.5 29.4558 5.54416 35.5 13 35.5V34.5ZM55 34.5H13V35.5H55V34.5ZM67.5 22C67.5 28.9036 61.9036 34.5 55 34.5V35.5C62.4558 35.5 68.5 29.4558 68.5 22H67.5ZM55 9.5C61.9036 9.5 67.5 15.0964 67.5 22H68.5C68.5 14.5442 62.4558 8.5 55 8.5V9.5ZM38.4538 9.5H55V8.5H38.4538V9.5Z" fill="#7299BE" mask="url(#path-1-inside-1_1776_3377)"/>
<path d="M11.882 18.67H15.982V24.46H11.882V18.67ZM15.262 19.27H12.602V23.86H15.262V19.27ZM17.662 17.76H18.412V26.76H17.662V17.76ZM18.232 21.39H19.912V22.02H18.232V21.39ZM27.3212 17.75H28.0612V26.77H27.3212V17.75ZM23.3312 18.46C24.6512 18.46 25.6012 19.68 25.6012 21.59C25.6012 23.49 24.6512 24.72 23.3312 24.72C22.0012 24.72 21.0512 23.49 21.0512 21.59C21.0512 19.68 22.0012 18.46 23.3312 18.46ZM23.3312 19.12C22.4112 19.12 21.7712 20.11 21.7712 21.59C21.7712 23.07 22.4112 24.06 23.3312 24.06C24.2512 24.06 24.8812 23.07 24.8812 21.59C24.8812 20.11 24.2512 19.12 23.3312 19.12ZM36.8604 17.76H37.5804V26.76H36.8604V17.76ZM33.8404 21.21H35.3804V21.87H33.8404V21.21ZM35.1304 17.98H35.8304V26.28H35.1304V17.98ZM30.0004 18.92H34.1104V19.53H30.0004V18.92ZM29.9104 24.52L29.8104 23.88C30.9904 23.88 32.9504 23.85 34.3204 23.66L34.3704 24.21C32.9604 24.47 31.0804 24.52 29.9104 24.52ZM30.7704 19.32H31.4604V24.06H30.7704V19.32ZM32.6504 19.32H33.3404V24.06H32.6504V19.32ZM45.7196 17.75H46.4596V26.77H45.7196V17.75ZM41.7296 18.46C43.0496 18.46 43.9996 19.68 43.9996 21.59C43.9996 23.49 43.0496 24.72 41.7296 24.72C40.3996 24.72 39.4496 23.49 39.4496 21.59C39.4496 19.68 40.3996 18.46 41.7296 18.46ZM41.7296 19.12C40.8096 19.12 40.1696 20.11 40.1696 21.59C40.1696 23.07 40.8096 24.06 41.7296 24.06C42.6496 24.06 43.2796 23.07 43.2796 21.59C43.2796 20.11 42.6496 19.12 41.7296 19.12ZM50.7288 19.02H51.3388V20.56C51.3388 22.44 50.1288 24.32 48.7488 25.02L48.3188 24.43C49.5788 23.82 50.7288 22.12 50.7288 20.56V19.02ZM50.8688 19.02H51.4788V20.56C51.4788 22.1 52.6188 23.65 53.9088 24.21L53.4888 24.8C52.0788 24.14 50.8688 22.42 50.8688 20.56V19.02ZM48.5988 18.69H53.6288V19.31H48.5988V18.69ZM54.9188 17.76H55.6588V26.76H54.9188V17.76Z" fill="#333333"/>
</svg>
